<svg xmlns="http://www.w3.org/2000/svg" width="34.086" height="25.29" viewBox="0 0 34.086 25.29">
  <g id="landline" transform="translate(-1 -9)">
    <path id="Path_6" data-name="Path 6" d="M32.338,13.4H30.688V9.55a.55.55,0,0,0-.55-.55H14.745a.55.55,0,0,0-.55.55V13.4H13.1V11.749A1.651,1.651,0,0,0,11.446,10.1h-4.4A1.651,1.651,0,0,0,5.4,11.749v1.7a2.754,2.754,0,0,0-2.2,2.693v.605A2.754,2.754,0,0,0,1,19.446v9.9a2.749,2.749,0,0,0,2.25,2.7,2.749,2.749,0,0,0,2.7,2.25h26.39a2.752,2.752,0,0,0,2.749-2.749V16.147A2.752,2.752,0,0,0,32.338,13.4ZM16.875,11.553l11.2-.106.132,4.067L16.875,15.2Zm-10.378.2c0-.3-.628.284-.325.284v.79c.3,0,0,.589,0,.893v1.957c0,.3.3,2.226,0,2.226l.172,6.768c-.3,0,.153,3.88.153,3.576ZM5.4,14.6V28.242a1.651,1.651,0,0,0,1.649,1.649H8.6a1.647,1.647,0,0,1-1.548,1.1H4.3V16.147A1.647,1.647,0,0,1,5.4,14.6ZM2.1,29.342v-9.9A1.647,1.647,0,0,1,3.2,17.9V30.89A1.646,1.646,0,0,1,2.1,29.342Zm31.887,2.2a1.651,1.651,0,0,1-1.649,1.649H5.948a1.647,1.647,0,0,1-1.548-1.1H7.048a2.754,2.754,0,0,0,2.693-2.2h1.7A1.651,1.651,0,0,0,13.1,28.242V14.5h1.1v3.848a.55.55,0,0,0,.55.55H30.138a.55.55,0,0,0,.55-.55V14.5h1.649a1.651,1.651,0,0,1,1.649,1.649Z" fill="#fff"/>
    <path id="Path_7" data-name="Path 7" d="M26.649,29A1.649,1.649,0,1,0,28.3,30.649,1.651,1.651,0,0,0,26.649,29Zm0,1.649c-.3,0,0,.3,0,0s-.3,0,0,0,0-.3,0,0S26.952,30.649,26.649,30.649Z" transform="translate(-10.805 -9.004)" fill="#fff"/>
    <path id="Path_8" data-name="Path 8" d="M34.649,29A1.649,1.649,0,1,0,36.3,30.649,1.651,1.651,0,0,0,34.649,29Zm0,1.649c-.3,0,0,.3,0,0s-.3,0,0,0,0-.3,0,0S34.952,30.649,34.649,30.649Z" transform="translate(-14.407 -9.004)" fill="#fff"/>
    <path id="Path_9" data-name="Path 9" d="M42.649,29A1.649,1.649,0,1,0,44.3,30.649,1.651,1.651,0,0,0,42.649,29Zm0,1.649c-.3,0,0,.3,0,0s-.3,0,0,0,0-.3,0,0S42.952,30.649,42.649,30.649Z" transform="translate(-18.009 -9.004)" fill="#fff"/>
    <path id="Path_10" data-name="Path 10" d="M26.649,37A1.649,1.649,0,1,0,28.3,38.649,1.651,1.651,0,0,0,26.649,37Zm0,1.649c-.3,0,0,.3,0,0s-.3,0,0,0,0-.3,0,0S26.952,38.649,26.649,38.649Z" transform="translate(-10.805 -12.606)" fill="#fff"/>
    <path id="Path_11" data-name="Path 11" d="M34.649,37A1.649,1.649,0,1,0,36.3,38.649,1.651,1.651,0,0,0,34.649,37Zm0,1.649c-.3,0,0,.3,0,0s-.3,0,0,0,0-.3,0,0S34.952,38.649,34.649,38.649Z" transform="translate(-14.407 -12.606)" fill="#fff"/>
    <path id="Path_12" data-name="Path 12" d="M42.649,37A1.649,1.649,0,1,0,44.3,38.649,1.651,1.651,0,0,0,42.649,37Zm0,1.649c-.3,0,.016-.02,0,0s-.3,0,0,0,0-.3,0,0S42.952,38.649,42.649,38.649Z" transform="translate(-18.009 -12.606)" fill="#fff"/>
    <path id="Path_13" data-name="Path 13" d="M26.649,45A1.649,1.649,0,1,0,28.3,46.649,1.651,1.651,0,0,0,26.649,45Zm0,1.649c-.3,0,0,.3,0,0s-.3,0,0,0,0-.3,0,0S26.952,46.649,26.649,46.649Z" transform="translate(-10.805 -16.208)" fill="#fff"/>
    <path id="Path_14" data-name="Path 14" d="M34.649,45A1.649,1.649,0,1,0,36.3,46.649,1.651,1.651,0,0,0,34.649,45Zm0,1.649c-.3,0,0,.3,0,0s-.3,0,0,0,0-.3,0,0S34.952,46.649,34.649,46.649Z" transform="translate(-14.407 -16.208)" fill="#fff"/>
    <path id="Path_15" data-name="Path 15" d="M42.649,45A1.649,1.649,0,1,0,44.3,46.649,1.651,1.651,0,0,0,42.649,45Zm0,1.649c-.3,0,0,.3,0,0s-.3,0,0,0,0-.3,0,0S42.952,46.649,42.649,46.649Z" transform="translate(-18.009 -16.208)" fill="#fff"/>
    <path id="Path_16" data-name="Path 16" d="M52.848,45h-2.2a1.649,1.649,0,0,0,0,3.3h2.2a1.649,1.649,0,0,0,0-3.3Zm0,1.649h-2.2c-.3,0,0,.3,0,0s-.3,0,0,0h2.2c.3,0,0-.3,0,0S53.151,46.649,52.848,46.649Z" transform="translate(-21.61 -16.208)" fill="#fff"/>
    <path id="Path_17" data-name="Path 17" d="M52.848,37h-2.2a1.649,1.649,0,1,0,0,3.3h2.2a1.649,1.649,0,0,0,0-3.3Zm0,1.649h-2.2c-.3,0,0,.3,0,0s-.3,0,0,0h2.2c.3,0,0-.3,0,0S53.151,38.649,52.848,38.649Z" transform="translate(-21.61 -12.606)" fill="#fff"/>
    <path id="Path_18" data-name="Path 18" d="M40.545,13h-11a.55.55,0,0,0-.55.55v3.3a.55.55,0,0,0,.55.55h11a.55.55,0,0,0,.55-.55v-3.3A.55.55,0,0,0,40.545,13ZM40,16.3H30.1V14.1H40Z" transform="translate(-12.606 -1.801)" fill="#fff"/>
    <path id="Path_19" data-name="Path 19" d="M15.2,17.3h1.1V14.55a.55.55,0,0,0-.55-.55H13v1.1h2.2Z" transform="translate(-5.403 -2.251)" fill="#547188"/>
  </g>
</svg>
