<svg xmlns="http://www.w3.org/2000/svg" width="17.914" height="13.291" viewBox="0 0 17.914 13.291">
  <g id="landline" transform="translate(-1 -9)">
    <path id="Path_6" data-name="Path 6" d="M17.469,11.311H16.6V9.289A.289.289,0,0,0,16.313,9H8.223a.289.289,0,0,0-.289.289v2.022H7.356v-.867a.868.868,0,0,0-.867-.867H4.178a.868.868,0,0,0-.867.867v.9a1.447,1.447,0,0,0-1.156,1.415v.318A1.447,1.447,0,0,0,1,14.49v5.2a1.445,1.445,0,0,0,1.182,1.418A1.445,1.445,0,0,0,3.6,22.291H17.469a1.446,1.446,0,0,0,1.445-1.445v-8.09A1.446,1.446,0,0,0,17.469,11.311Zm-8.126-.97,5.884-.056.069,2.137-5.953-.167Zm-5.454.1c0-.159-.33.149-.171.149v.415c.159,0,0,.31,0,.469v1.028c0,.159.159,1.17,0,1.17l.09,3.557a7.117,7.117,0,0,0,.08,1.88Zm-.578,1.5v7.17a.868.868,0,0,0,.867.867h.814a.866.866,0,0,1-.814.578H2.734v-7.8A.866.866,0,0,1,3.311,11.942ZM1.578,19.69v-5.2a.866.866,0,0,1,.578-.814V20.5A.865.865,0,0,1,1.578,19.69Zm16.758,1.156a.868.868,0,0,1-.867.867H3.6a.866.866,0,0,1-.814-.578H4.178a1.447,1.447,0,0,0,1.415-1.156h.9a.868.868,0,0,0,.867-.867V11.889h.578v2.022a.289.289,0,0,0,.289.289h8.09a.289.289,0,0,0,.289-.289V11.889h.867a.868.868,0,0,1,.867.867Z" fill="#fff"/>
    <path id="Path_7" data-name="Path 7" d="M25.867,29a.867.867,0,1,0,.867.867A.868.868,0,0,0,25.867,29Zm0,.867c-.159,0,0,.159,0,0s-.159,0,0,0,0-.159,0,0S26.026,29.867,25.867,29.867Z" transform="translate(-17.066 -14.221)" fill="#fff"/>
    <path id="Path_8" data-name="Path 8" d="M33.867,29a.867.867,0,1,0,.867.867A.868.868,0,0,0,33.867,29Zm0,.867c-.159,0,0,.159,0,0s-.159,0,0,0,0-.159,0,0S34.026,29.867,33.867,29.867Z" transform="translate(-22.754 -14.221)" fill="#fff"/>
    <path id="Path_9" data-name="Path 9" d="M41.867,29a.867.867,0,1,0,.867.867A.868.868,0,0,0,41.867,29Zm0,.867c-.159,0,0,.159,0,0s-.159,0,0,0,0-.159,0,0S42.026,29.867,41.867,29.867Z" transform="translate(-28.443 -14.221)" fill="#fff"/>
    <path id="Path_10" data-name="Path 10" d="M25.867,37a.867.867,0,1,0,.867.867A.868.868,0,0,0,25.867,37Zm0,.867c-.159,0,0,.159,0,0s-.159,0,0,0,0-.159,0,0S26.026,37.867,25.867,37.867Z" transform="translate(-17.066 -19.91)" fill="#fff"/>
    <path id="Path_11" data-name="Path 11" d="M33.867,37a.867.867,0,1,0,.867.867A.868.868,0,0,0,33.867,37Zm0,.867c-.159,0,0,.159,0,0s-.159,0,0,0,0-.159,0,0S34.026,37.867,33.867,37.867Z" transform="translate(-22.754 -19.91)" fill="#fff"/>
    <path id="Path_12" data-name="Path 12" d="M41.867,37a.867.867,0,1,0,.867.867A.868.868,0,0,0,41.867,37Zm0,.867c-.159,0,.009-.01,0,0s-.159,0,0,0,0-.159,0,0S42.026,37.867,41.867,37.867Z" transform="translate(-28.443 -19.91)" fill="#fff"/>
    <path id="Path_13" data-name="Path 13" d="M25.867,45a.867.867,0,1,0,.867.867A.868.868,0,0,0,25.867,45Zm0,.867c-.159,0,0,.159,0,0s-.159,0,0,0,0-.159,0,0S26.026,45.867,25.867,45.867Z" transform="translate(-17.066 -25.599)" fill="#fff"/>
    <path id="Path_14" data-name="Path 14" d="M33.867,45a.867.867,0,1,0,.867.867A.868.868,0,0,0,33.867,45Zm0,.867c-.159,0,0,.159,0,0s-.159,0,0,0,0-.159,0,0S34.026,45.867,33.867,45.867Z" transform="translate(-22.754 -25.599)" fill="#fff"/>
    <path id="Path_15" data-name="Path 15" d="M41.867,45a.867.867,0,1,0,.867.867A.868.868,0,0,0,41.867,45Zm0,.867c-.159,0,0,.159,0,0s-.159,0,0,0,0-.159,0,0S42.026,45.867,41.867,45.867Z" transform="translate(-28.443 -25.599)" fill="#fff"/>
    <path id="Path_16" data-name="Path 16" d="M51.022,45H49.867a.867.867,0,0,0,0,1.734h1.156a.867.867,0,0,0,0-1.734Zm0,.867H49.867c-.159,0,0,.159,0,0s-.159,0,0,0h1.156c.159,0,0-.159,0,0S51.182,45.867,51.022,45.867Z" transform="translate(-34.131 -25.599)" fill="#fff"/>
    <path id="Path_17" data-name="Path 17" d="M51.022,37H49.867a.867.867,0,1,0,0,1.734h1.156a.867.867,0,0,0,0-1.734Zm0,.867H49.867c-.159,0,0,.159,0,0s-.159,0,0,0h1.156c.159,0,0-.159,0,0S51.182,37.867,51.022,37.867Z" transform="translate(-34.131 -19.91)" fill="#fff"/>
    <path id="Path_18" data-name="Path 18" d="M35.067,13H29.289a.289.289,0,0,0-.289.289v1.734a.289.289,0,0,0,.289.289h5.779a.289.289,0,0,0,.289-.289V13.289A.289.289,0,0,0,35.067,13Zm-.289,1.734h-5.2V13.578h5.2Z" transform="translate(-19.91 -2.844)" fill="#fff"/>
    <path id="Path_19" data-name="Path 19" d="M14.156,15.734h.578V14.289A.289.289,0,0,0,14.445,14H13v.578h1.156Z" transform="translate(-8.533 -3.555)" fill="#547188"/>
  </g>
</svg>
